<?xml version="1.0" encoding="UTF-8" standalone="no"?><!DOCTYPE svg PUBLIC "-//W3C//DTD SVG 1.1//EN" "http://www.w3.org/Graphics/SVG/1.1/DTD/svg11.dtd"><svg width="100%" height="100%" viewBox="0 0 400 459" version="1.1" xmlns="http://www.w3.org/2000/svg" xmlns:xlink="http://www.w3.org/1999/xlink" xml:space="preserve" xmlns:serif="http://www.serif.com/" style="fill-rule:evenodd;clip-rule:evenodd;stroke-linejoin:round;stroke-miterlimit:1.41421;"><path d="M194.963,1.352c3.105,-1.803 6.939,-1.803 10.044,0c63.203,36.701 126.557,73.278 189.942,109.663c3.114,1.788 5.03,5.108 5.021,8.698c-0.182,73.086 -0.182,146.24 0,219.326c0.009,3.59 -1.907,6.91 -5.021,8.698c-63.385,36.385 -126.739,72.962 -189.942,109.663c-3.105,1.803 -6.939,1.803 -10.044,0c-63.202,-36.701 -126.556,-73.278 -189.941,-109.663c-3.114,-1.788 -5.031,-5.108 -5.022,-8.698c0.182,-73.086 0.182,-146.24 0,-219.326c-0.009,-3.59 1.908,-6.91 5.022,-8.698c63.385,-36.385 126.739,-72.962 189.941,-109.663Zm165.013,278.662l0,64.775c4.991,-2.868 9.982,-5.734 14.973,-8.599c3.114,-1.788 5.03,-5.108 5.021,-8.698c-0.162,-65.39 -0.162,-130.842 0,-196.232c0.009,-3.591 -1.907,-6.91 -5.021,-8.698c-56.711,-32.555 -113.394,-65.28 -169.942,-98.116c-3.105,-1.803 -6.939,-1.803 -10.044,0c-44.92,26.084 -89.926,52.098 -134.963,78.013l0,177.541l-19.952,0l0,-166.068c-5.009,2.878 -10.017,5.755 -15.026,8.63c-3.114,1.788 -5.031,5.107 -5.022,8.698c0.162,65.39 0.162,130.842 0,196.232c-0.009,3.59 1.908,6.91 5.022,8.698c56.71,32.555 113.393,65.28 169.941,98.116c3.105,1.803 6.939,1.803 10.044,0c44.939,-26.094 89.962,-52.119 135.017,-78.044l0,-136.673l0.004,0c-0.23,-10.852 -9.098,-19.578 -20.006,-19.578c-0.001,0 -0.002,0 -0.003,0c-11.052,0 -20.01,8.958 -20.01,20.01l0,59.993l-20,0l0,-0.04l-0.009,0l0,-100l20,0l0,5.388c5.882,-3.405 12.712,-5.354 19.998,-5.355c0,0 0,0 0,0c10.611,-0.002 20.787,4.213 28.29,11.716c7.502,7.503 11.716,17.68 11.713,28.291l-0.016,60l-0.009,0Zm-260.944,58.072c10.287,-2.662 19.776,-8.031 27.418,-15.673c11.261,-11.261 17.587,-26.534 17.587,-42.459l0,-5.337c-5.891,3.418 -12.733,5.375 -20.033,5.376c-0.001,0 -0.001,0 -0.001,0c-10.611,0.002 -20.787,-4.213 -28.29,-11.716c-7.502,-7.503 -11.716,-17.68 -11.713,-28.291c0.008,-27.845 0.016,-60 0.016,-60l19.953,0c0,0 0,36.296 0,59.993c0,11.052 8.958,20.01 20.01,20.01c0.001,0 0.002,0 0.003,0c11.052,0 20.01,-8.958 20.01,-20.01c0,-23.697 0,-59.993 0,-59.993l20,0c0,0 0,32.165 0,60.011c0,0.171 -0.001,0.342 -0.003,0.513l0,39.49c0,37.196 -25.385,68.463 -59.776,77.421l-5.181,-19.335Zm110.976,-58.082l-20,0l0,-0.008l-0.008,0l0,-100l20,0l0,5.354c5.882,-3.403 12.712,-5.352 19.997,-5.354c0,0 0,0 0,0c10.611,-0.001 20.787,4.213 28.29,11.716c2.871,2.872 5.261,6.135 7.116,9.664l-17.324,10.002c-3.223,-6.729 -10.096,-11.377 -18.058,-11.378l-0.003,0c-11.053,0.001 -20.01,8.959 -20.01,20.01l0,59.994Z" style="fill:url(#_Linear1);"/><defs><linearGradient id="_Linear1" x1="0" y1="0" x2="1" y2="0" gradientUnits="userSpaceOnUse" gradientTransform="matrix(0.882926,450.837,-450.837,0.882926,198.876,19.1479)"><stop offset="0" style="stop-color:#1da87d;stop-opacity:1"/><stop offset="0.36" style="stop-color:#215986;stop-opacity:1"/><stop offset="1" style="stop-color:#151126;stop-opacity:1"/></linearGradient></defs></svg>